<?xml version="1.0" encoding="UTF-8" standalone="no"?><!DOCTYPE svg PUBLIC "-//W3C//DTD SVG 1.1//EN" "http://www.w3.org/Graphics/SVG/1.1/DTD/svg11.dtd"><svg width="100%" height="100%" viewBox="0 0 420 959" version="1.1" xmlns="http://www.w3.org/2000/svg" xmlns:xlink="http://www.w3.org/1999/xlink" xml:space="preserve" style="fill-rule:evenodd;clip-rule:evenodd;stroke-linejoin:round;stroke-miterlimit:1.41421;"><rect x="0" y="0" width="420" height="959" style="fill:#002999;"/><g><g><g><circle cx="98.998" cy="369.752" r="18.723" style="fill:#fc0;"/></g><g><circle cx="145.81" cy="419.091" r="18.723" style="fill:#fc0;"/></g><g><circle cx="210.045" cy="434.828" r="18.723" style="fill:#fc0;"/></g><g><circle cx="273.909" cy="416.697" r="18.723" style="fill:#fc0;"/></g><g><circle cx="319.915" cy="368.705" r="18.723" style="fill:#fc0;"/></g><g><circle cx="336.703" cy="303.466" r="18.723" style="fill:#fc0;"/></g><g><circle cx="319.962" cy="237.198" r="18.723" style="fill:#fc0;"/></g><g><circle cx="274.131" cy="189.114" r="18.723" style="fill:#fc0;"/></g><g><circle cx="209.471" cy="171.781" r="18.723" style="fill:#fc0;"/></g><g><circle cx="145.066" cy="189.94" r="18.723" style="fill:#fc0;"/></g><g><circle cx="98.998" cy="237.965" r="18.723" style="fill:#fc0;"/></g><g><circle cx="82.366" cy="304.352" r="18.723" style="fill:#fc0;"/></g></g><g><path d="M83.347,737.914l0,-161.035l21.859,0l84.582,126.433l0,-126.433l20.432,0l0,161.035l-21.86,0l-84.582,-126.544l0,126.544l-20.431,0l0,0Z" style="fill:#fff;fill-rule:nonzero;"/><path d="M245.151,737.914l0,-161.035l21.31,0l0,142.031l79.31,0l0,19.004l-100.62,0l0,0Z" style="fill:#fff;fill-rule:nonzero;"/></g></g></svg>