<svg viewBox="0 0 420 959" xmlns="http://www.w3.org/2000/svg" fill-rule="evenodd" clip-rule="evenodd" stroke-linejoin="round" stroke-miterlimit="1.41"><path fill="#002999" d="M0 0h420v959H0z"/><circle cx="99" cy="369.75" r="18.72" fill="#fc0"/><circle cx="145.81" cy="419.09" r="18.72" fill="#fc0"/><circle cx="210.04" cy="434.83" r="18.72" fill="#fc0"/><circle cx="273.91" cy="416.7" r="18.72" fill="#fc0"/><circle cx="319.92" cy="368.7" r="18.72" fill="#fc0"/><circle cx="336.7" cy="303.47" r="18.72" fill="#fc0"/><circle cx="319.96" cy="237.2" r="18.72" fill="#fc0"/><circle cx="274.13" cy="189.11" r="18.72" fill="#fc0"/><circle cx="209.47" cy="171.78" r="18.72" fill="#fc0"/><circle cx="145.07" cy="189.94" r="18.72" fill="#fc0"/><circle cx="99" cy="237.97" r="18.72" fill="#fc0"/><circle cx="82.37" cy="304.35" r="18.72" fill="#fc0"/><g fill="#fff" fill-rule="nonzero"><path d="M83.347 737.914V576.879h21.859l84.582 126.433V576.879h20.432v161.035h-21.86L103.778 611.37v126.544H83.347z"/><path d="M245.151 737.914V576.879h21.31V718.91h79.31v19.004h-100.62z"/></g></svg>